0
SECTION
2
HEADER
0
ENDSEC
0
SECTION
2
ENTITIES
0
LWPOLYLINE
8
0
90
33
70
1
10
141.52935966270212
20
173.01104334602152
10
140.31591914997753
20
173.514192430606
10
139.2754006461458
20
174.3160141828822
10
138.47962477052707
20
175.3611637583128
10
137.98351905782297
20
176.57750088306972
10
137.82132664681816
20
177.8810692552896
10
138.00424268624323
20
179.18189153437328
10
138.51964160222644
20
180.39017992571158
10
139.3319485643284
20
181.42253368221182
10
140.38509499819762
20
182.20769574705454
10
141.6063886558474
20
182.69147119188813
10
663.1202375227293
20
313.3100410738328
10
663.498264179407
20
313.36705449984703
10
663.8802328188556
20
313.3510969817899
10
664.2521868146351
20
313.2627515861634
10
664.6005354620755
20
313.10524633631053
10
664.9125505645629
20
312.8843362647326
10
665.1768315049279
20
312.6080931318505
10
665.3837218088454
20
312.2866104946059
10
665.5256619795721
20
311.93163490130576
10
665.5974657119117
20
311.5561366883581
10
665.5965093929134
20
311.17383606141806
10
639.1060445390818
20
42.34467421142368
10
639.0423633770739
20
42.00423332841556
10
638.9209033880527
20
41.67988358464349
10
638.7453070139247
20
41.381351846613605
10
638.5208401829753
20
41.11759072927141
10
638.2542343908868
20
40.89651011763197
10
637.9534848311167
20
40.72473995865162
10
637.6276106284705
20
40.60743143693347
10
637.2863843661789
20
40.54810249677282
10
636.9400390176464
20
40.54853234315434
10
636.5989610716397
20
40.608708085491706
0
ENDSEC
0
EOF