<svg width="815" height="382" xmlns="http://www.w3.org/2000/svg">
  <polygon points="141.52935966270212,173.01104334602152 140.31591914997753,173.514192430606 139.2754006461458,174.3160141828822 138.47962477052707,175.3611637583128 137.98351905782297,176.57750088306972 137.82132664681816,177.8810692552896 138.00424268624323,179.18189153437328 138.51964160222644,180.39017992571158 139.3319485643284,181.42253368221182 140.38509499819762,182.20769574705454 141.6063886558474,182.69147119188813 663.1202375227293,313.3100410738328 663.498264179407,313.36705449984703 663.8802328188556,313.3510969817899 664.2521868146351,313.2627515861634 664.6005354620755,313.10524633631053 664.9125505645629,312.8843362647326 665.1768315049279,312.6080931318505 665.3837218088454,312.2866104946059 665.5256619795721,311.93163490130576 665.5974657119117,311.5561366883581 665.5965093929134,311.17383606141806 639.1060445390818,42.34467421142368 639.0423633770739,42.00423332841556 638.9209033880527,41.67988358464349 638.7453070139247,41.381351846613605 638.5208401829753,41.11759072927141 638.2542343908868,40.89651011763197 637.9534848311167,40.72473995865162 637.6276106284705,40.60743143693347 637.2863843661789,40.54810249677282 636.9400390176464,40.54853234315434 636.5989610716397,40.608708085491706" fill="rgba(0, 200, 100, 0.3)" stroke="black" stroke-width="2" />
</svg>